HIERARCHY
ROOT SpineBase
{
  OFFSET 0.000000 0.000000 0.000000
  CHANNELS 6 Xposition Yposition Zposition Zrotation Xrotation Yrotation
  JOINT SpineMid
  {
    OFFSET 0.000000 31.643902 0.000000
    CHANNELS 3 Zrotation Xrotation Yrotation
    JOINT SpineShoulder
    {
      OFFSET 0.115116 23.377603 -0.619352
      CHANNELS 3 Zrotation Xrotation Yrotation
      JOINT Neck
      {
        OFFSET -0.032406 7.760406 -0.475378
        CHANNELS 3 Zrotation Xrotation Yrotation
        JOINT Head
        {
          OFFSET 4.040461 11.105764 -0.055829
          CHANNELS 3 Zrotation Xrotation Yrotation
          End Site
          {
            OFFSET 0 0 0
          }
        }
      }
      JOINT ShoulderLeft
      {
        OFFSET -14.381470 -2.197441 -9.219181
        CHANNELS 3 Zrotation Xrotation Yrotation
        JOINT ElbowLeft
        {
          OFFSET -5.733822 -27.074311 -3.392932
          CHANNELS 3 Zrotation Xrotation Yrotation
          JOINT WristLeft
          {
            OFFSET 1.308017 -21.777647 -5.203916
            CHANNELS 3 Zrotation Xrotation Yrotation
            JOINT HandLeft
            {
              OFFSET 0.124096 -6.271402 0.013686
              CHANNELS 3 Zrotation Xrotation Yrotation
              JOINT HandTipLeft
              {
                OFFSET 1.460357 -7.147564 -0.872627
                CHANNELS 3 Zrotation Xrotation Yrotation
                End Site
                {
                  OFFSET 0 0 0
                }
              }
              JOINT ThumbLeft
              {
                OFFSET -3.692371 -0.198234 -2.183981
                CHANNELS 3 Zrotation Xrotation Yrotation
                End Site
                {
                  OFFSET 0 0 0
                }
              }
            }
          }
        }
      }
      JOINT ShoulderRight
      {
        OFFSET 14.346697 -5.849004 4.308216
        CHANNELS 3 Zrotation Xrotation Yrotation
        JOINT ElbowRight
        {
          OFFSET 1.586518 -26.984115 4.025653
          CHANNELS 3 Zrotation Xrotation Yrotation
          JOINT WristRight
          {
            OFFSET 0.427526 -25.395654 -2.307506
            CHANNELS 3 Zrotation Xrotation Yrotation
            JOINT HandRight
            {
              OFFSET -1.306107 -5.187025 -0.940838
              CHANNELS 3 Zrotation Xrotation Yrotation
              JOINT HandTipRight
              {
                OFFSET 0.097006 -7.277065 0.836654
                CHANNELS 3 Zrotation Xrotation Yrotation
                End Site
                {
                  OFFSET 0 0 0
                }
              }
              JOINT ThumbRight
              {
                OFFSET -3.559673 0.663678 -3.779933
                CHANNELS 3 Zrotation Xrotation Yrotation
                End Site
                {
                  OFFSET 0 0 0
                }
              }
            }
          }
        }
      }
    }
  }
  JOINT HipLeft
  {
    OFFSET -6.988880 1.023975 -5.736732
    CHANNELS 3 Zrotation Xrotation Yrotation
    JOINT KneeLeft
    {
      OFFSET -13.002252 -29.237372 0.052699
      CHANNELS 3 Zrotation Xrotation Yrotation
      JOINT AnkleLeft
      {
        OFFSET -8.523903 -36.131706 4.026414
        CHANNELS 3 Zrotation Xrotation Yrotation
        JOINT FootLeft
        {
          OFFSET 3.840777 -6.059723 -5.197779
          CHANNELS 3 Zrotation Xrotation Yrotation
          End Site
          {
            OFFSET 0 0 0
          }
        }
      }
    }
  }
  JOINT HipRight
  {
    OFFSET 5.801150 0.720872 -0.677523
    CHANNELS 3 Zrotation Xrotation Yrotation
    JOINT KneeRight
    {
      OFFSET -1.048797 -29.699605 8.079685
      CHANNELS 3 Zrotation Xrotation Yrotation
      JOINT AnkleRight
      {
        OFFSET -10.170091 -21.750610 6.622317
        CHANNELS 3 Zrotation Xrotation Yrotation
        JOINT FootRight
        {
          OFFSET 3.440524 -4.755063 -6.113702
          CHANNELS 3 Zrotation Xrotation Yrotation
          End Site
          {
            OFFSET 0 0 0
          }
        }
      }
    }
  }
}
MOTION
Frames: 8
Frame Time: 0.033333
80.887509 73.241412 410.252534 0.441385 0.037471 -23.932029 0.491149 0.186905 23.956917 -0.065292 -0.098774 0.030025 -0.900791 0.090592 -0.054095 0.000000 0.000000 0.000000 -0.900791 0.090592 -0.054095 -0.000000 0.000000 0.000000 4.264998 -1.978515 0.043804 3.352592 -2.721389 -1.725411 0.000000 0.000000 0.000000 0.000000 0.000000 0.000000 -0.900791 0.090592 -0.054095 0.813603 0.943309 -0.064688 1.902477 -4.531380 0.599972 -4.368898 7.904795 -0.303694 0.000000 0.000000 0.000000 0.000000 0.000000 0.000000 -0.388240 -0.213296 23.931162 -0.000000 0.000000 0.000000 -11.673461 -20.284177 -6.440368 0.000000 0.000000 0.000000 0.893835 0.130781 24.296098 -6.150792 2.071853 -2.564383 -7.075014 -37.892817 -24.609782 0.000000 0.000000 0.000000
80.766399 73.038794 410.077450 0.235410 0.190752 -24.875046 0.631269 0.079605 24.897933 -0.841598 0.002899 -0.022289 -0.000000 0.000000 0.000000 0.000000 0.000000 0.000000 -0.230999 1.008301 -0.182284 -1.051410 -2.537402 0.363946 4.436791 -1.831256 -0.285206 0.946446 -4.715821 -1.951583 0.000000 0.000000 0.000000 0.000000 0.000000 0.000000 -0.000000 0.000000 0.000000 1.051194 0.657719 -0.090417 2.919091 -4.270693 0.446508 -5.671615 7.597446 -0.048257 0.000000 0.000000 0.000000 0.000000 0.000000 0.000000 -0.133334 -0.272078 24.874338 -0.000000 0.000000 0.000000 -14.280915 -26.365354 -11.165506 0.000000 0.000000 0.000000 0.956885 -0.245960 25.166483 -5.104231 2.060284 -2.171132 -5.488175 -34.449194 -21.966145 0.000000 0.000000 0.000000
80.301825 72.846067 409.696173 -0.490175 0.519876 -26.055609 0.668714 -0.251714 26.059302 -0.000000 0.000000 0.000000 1.246233 0.774180 -0.284955 0.000000 0.000000 0.000000 -0.441949 1.297332 -0.213895 -2.243894 -3.951524 0.589421 4.897954 -1.847846 -0.648966 -2.259968 -4.723396 -1.719307 0.000000 0.000000 0.000000 0.000000 0.000000 0.000000 -0.000000 0.000000 0.000000 1.482814 -0.207138 -0.135539 2.613155 -2.344489 0.119138 -4.775557 5.652978 0.202753 0.000000 0.000000 0.000000 0.000000 0.000000 0.000000 1.517206 -1.052090 26.555995 -0.401252 1.095194 -0.483204 -11.764127 -20.864504 -6.968560 0.000000 0.000000 0.000000 1.853473 -0.716378 26.335902 -3.980316 2.262009 -1.722206 -0.821644 -26.620507 -18.108513 0.000000 0.000000 0.000000
80.244177 72.218018 409.417598 -0.995390 0.655218 -26.752960 1.183774 -0.136933 26.760067 -0.892053 -0.082579 -0.055632 3.866561 1.772664 -0.598691 0.000000 0.000000 0.000000 -0.080000 1.778163 -0.166588 -2.908692 -6.196634 0.650578 3.255487 2.358950 -0.822207 -3.360479 -12.895280 -3.007137 0.000000 0.000000 0.000000 0.000000 0.000000 0.000000 2.431157 -0.811822 0.240551 -1.535599 0.901419 -0.164346 -0.053057 -1.963742 0.504745 -3.485796 7.675836 -0.545908 0.000000 0.000000 0.000000 0.000000 0.000000 0.000000 2.223705 -1.604776 27.568278 -0.242793 1.782353 -0.788628 -9.344493 -19.736511 -7.786133 0.000000 0.000000 0.000000 1.477382 -1.623829 26.705506 -1.525397 2.135305 -0.784521 11.021687 -5.570329 -13.775303 0.000000 0.000000 0.000000
80.516022 71.223579 409.237898 -1.320211 0.600405 -26.448869 1.449422 0.050559 26.455147 -1.430305 -0.112288 -0.089490 6.388905 3.087455 -1.125400 0.000000 0.000000 0.000000 -0.120616 2.259292 -0.140868 -3.168337 -8.948653 0.562403 1.121835 5.080647 -0.675842 -3.929988 -15.745213 -3.733622 0.000000 0.000000 0.000000 0.000000 0.000000 0.000000 2.343724 -0.373478 0.196022 -0.911951 0.491040 -0.103389 0.726035 -4.703595 1.093023 -8.311528 12.202559 -0.694325 0.000000 0.000000 0.000000 0.000000 0.000000 0.000000 2.001591 -2.107684 27.431184 0.504276 2.169930 -0.975673 -6.995706 -20.232166 -10.119504 0.000000 0.000000 0.000000 0.419296 -2.989094 25.892672 2.255581 2.283583 0.491091 32.337174 29.663128 -18.894254 0.000000 0.000000 0.000000
80.831072 70.501649 408.925079 -2.214240 1.410189 -25.108530 0.554788 -0.183291 25.081747 -0.753795 -0.068727 -0.107749 9.507111 3.702758 -1.682128 0.000000 0.000000 0.000000 -0.549267 2.958271 -0.208583 -2.981251 -12.830888 0.585149 1.675370 7.351641 -0.812336 -3.234788 -14.688211 -3.413675 0.000000 0.000000 0.000000 0.000000 0.000000 0.000000 -0.629765 3.390886 0.022562 4.896883 -7.709214 0.307677 4.365291 -5.887325 1.686390 -18.346491 22.503382 1.450264 0.000000 0.000000 0.000000 0.000000 0.000000 0.000000 3.686202 -2.397175 26.204070 -0.062015 2.326867 -1.033545 -8.119225 -23.571822 -12.673681 0.000000 0.000000 0.000000 0.552339 -5.168005 24.114635 2.357639 4.891033 -0.154593 59.217870 44.780161 -35.780581 0.000000 0.000000 0.000000
81.436420 69.685078 409.328193 -2.279503 0.647686 -27.185500 0.423863 -0.141544 27.140580 -0.749447 -0.044631 -0.114753 11.517371 6.176244 -2.658249 0.000000 0.000000 0.000000 -0.462610 3.634402 -0.164807 -1.344649 -15.154684 0.200011 -6.377784 1.625027 0.151146 2.375114 -6.409441 -2.802784 0.000000 0.000000 0.000000 0.000000 0.000000 0.000000 -3.822250 7.802132 0.105167 11.423563 -15.442676 1.403630 -1.785057 -9.531223 4.873214 -15.042932 32.282287 0.714825 0.000000 0.000000 0.000000 0.000000 0.000000 0.000000 1.630310 -1.586536 27.846311 -1.247153 4.972509 -1.655324 -4.796175 -32.703627 -18.150912 0.000000 0.000000 0.000000 -1.913514 -4.643234 25.478802 5.829292 5.950145 -0.111376 80.476311 50.600385 -52.855687 0.000000 0.000000 0.000000
82.565670 68.079900 409.425817 -2.056938 -0.334433 -25.979957 0.320181 -0.111402 25.923927 -0.662591 -0.054564 -0.107084 12.669069 8.812597 -3.748528 0.000000 0.000000 0.000000 0.308558 2.874509 0.004046 -1.424590 -10.180492 0.243473 -13.120013 0.837294 0.472690 8.477553 -9.889523 -3.656222 0.000000 0.000000 0.000000 0.000000 0.000000 0.000000 -10.288504 13.452304 0.586422 21.569991 -22.399907 4.310564 3.403488 -12.742035 6.050886 -21.465565 38.670960 3.090891 0.000000 0.000000 0.000000 0.000000 0.000000 0.000000 0.209588 -1.410232 26.695427 -0.788248 5.187691 -1.771624 1.607783 -32.783687 -21.352298 0.000000 0.000000 0.000000 -5.066820 -5.729138 23.345601 8.921575 6.613941 0.673807 86.887438 53.803500 -57.951666 0.000000 0.000000 0.000000
